<?xml version="1.0" encoding="UTF-8" standalone="no"?>
<!-- Generator: Adobe Illustrator 27.5.0, SVG Export Plug-In . SVG Version: 6.00 Build 0)  -->

<svg
   version="1.1"
   x="0px"
   y="0px"
   viewBox="0 0 585 765"
   xml:space="preserve"
   id="svg134"
   sodipodi:docname="tablet.svg"
   inkscape:version="1.4 (86a8ad7, 2024-10-11)"
   width="585"
   height="765"
   xmlns:inkscape="http://www.inkscape.org/namespaces/inkscape"
   xmlns:sodipodi="http://sodipodi.sourceforge.net/DTD/sodipodi-0.dtd"
   xmlns="http://www.w3.org/2000/svg"
   xmlns:svg="http://www.w3.org/2000/svg"><defs
   id="defs134">
	

		
		
	
			
		
				
				
					<linearGradient
   id="SVGID_00000082337645550211461570000012722149020284056472_"
   gradientUnits="userSpaceOnUse"
   x1="-840.34857"
   y1="-447.4985"
   x2="-809.46881"
   y2="-447.4985"
   gradientTransform="matrix(0,-1,-1,0,-155.5037,-75.7887)">
					<stop
   offset="0"
   style="stop-color:#F1F1F1"
   id="stop109" />
					<stop
   offset="0.0591"
   style="stop-color:#DDDDDD"
   id="stop110" />
					<stop
   offset="0.1453"
   style="stop-color:#C7C7C7"
   id="stop111" />
					<stop
   offset="0.2467"
   style="stop-color:#B6B6B6"
   id="stop112" />
					<stop
   offset="0.3711"
   style="stop-color:#AAAAAA"
   id="stop113" />
					<stop
   offset="0.5437"
   style="stop-color:#A3A3A3"
   id="stop114" />
					<stop
   offset="1"
   style="stop-color:#A1A1A1"
   id="stop115" />
				</linearGradient>
				
				
				
					<linearGradient
   id="SVGID_00000158019403768125075550000017935509303531322007_"
   gradientUnits="userSpaceOnUse"
   x1="-106.0987"
   y1="-447.53351"
   x2="-76.088699"
   y2="-447.53351"
   gradientTransform="matrix(0,-1,-1,0,-155.5037,-75.7887)">
					<stop
   offset="0"
   style="stop-color:#A1A1A1"
   id="stop116" />
					<stop
   offset="0.4563"
   style="stop-color:#A3A3A3"
   id="stop117" />
					<stop
   offset="0.6289"
   style="stop-color:#AAAAAA"
   id="stop118" />
					<stop
   offset="0.7533"
   style="stop-color:#B6B6B6"
   id="stop119" />
					<stop
   offset="0.8547"
   style="stop-color:#C7C7C7"
   id="stop120" />
					<stop
   offset="0.9409"
   style="stop-color:#DDDDDD"
   id="stop121" />
					<stop
   offset="1"
   style="stop-color:#F1F1F1"
   id="stop122" />
				</linearGradient>
				
				
				
					<linearGradient
   id="SVGID_00000009557717682647859880000004614735824555345031_"
   gradientUnits="userSpaceOnUse"
   x1="-837.34857"
   y1="-723.05847"
   x2="-79.088699"
   y2="-723.05847"
   gradientTransform="matrix(0,-1,-1,0,-155.5037,-75.7887)">
					<stop
   offset="0"
   style="stop-color:#C9C9C9"
   id="stop123" />
					<stop
   offset="0.4778"
   style="stop-color:#F1F1F1"
   id="stop124" />
					<stop
   offset="0.636"
   style="stop-color:#ECECEC"
   id="stop125" />
					<stop
   offset="0.819"
   style="stop-color:#DEDEDE"
   id="stop126" />
					<stop
   offset="1"
   style="stop-color:#C9C9C9"
   id="stop127" />
				</linearGradient>
				
				
					<linearGradient
   id="SVGID_00000005985446793678005020000009151590931655295895_"
   gradientUnits="userSpaceOnUse"
   x1="-837.34857"
   y1="-171.9985"
   x2="-79.088699"
   y2="-171.9985"
   gradientTransform="matrix(0,-1,-1,0,-155.5037,-75.7887)">
					<stop
   offset="0"
   style="stop-color:#C9C9C9"
   id="stop128" />
					<stop
   offset="0.4778"
   style="stop-color:#F1F1F1"
   id="stop129" />
					<stop
   offset="0.636"
   style="stop-color:#ECECEC"
   id="stop130" />
					<stop
   offset="0.819"
   style="stop-color:#DEDEDE"
   id="stop131" />
					<stop
   offset="1"
   style="stop-color:#C9C9C9"
   id="stop132" />
				</linearGradient>
				
			
					
					
					
					
				
						
							<linearGradient
   id="SVGID_00000072993859886619133030000006421232464484377005_"
   gradientUnits="userSpaceOnUse"
   x1="-768.33258"
   y1="-757.64252"
   x2="-148.1046"
   y2="-137.41451"
   gradientTransform="matrix(0,-1.0071325,-1.0061345,0,-157.64931,-77.385765)">
							<stop
   offset="0"
   style="stop-color:#000000"
   id="stop99" />
							<stop
   offset="0.3245"
   style="stop-color:#030303"
   id="stop100" />
							<stop
   offset="0.6087"
   style="stop-color:#0E0E0E"
   id="stop101" />
							<stop
   offset="0.877"
   style="stop-color:#202020"
   id="stop102" />
							<stop
   offset="1"
   style="stop-color:#2B2B2B"
   id="stop103" />
						</linearGradient>
						
						
							<linearGradient
   id="SVGID_00000130648794570038701060000000986233333257405369_"
   gradientUnits="userSpaceOnUse"
   x1="-768.68597"
   y1="-757.99591"
   x2="-147.7513"
   y2="-137.0612"
   gradientTransform="matrix(0,-1.0071325,-1.0061345,0,-157.64931,-77.385765)">
							<stop
   offset="0"
   style="stop-color:#000000"
   id="stop104" />
							<stop
   offset="0.3245"
   style="stop-color:#030303"
   id="stop105" />
							<stop
   offset="0.6087"
   style="stop-color:#0E0E0E"
   id="stop106" />
							<stop
   offset="0.877"
   style="stop-color:#202020"
   id="stop107" />
							<stop
   offset="1"
   style="stop-color:#2B2B2B"
   id="stop108" />
						</linearGradient>
						
					</defs><sodipodi:namedview
   id="namedview134"
   pagecolor="#ffffff"
   bordercolor="#666666"
   borderopacity="1.0"
   inkscape:showpageshadow="2"
   inkscape:pageopacity="0.0"
   inkscape:pagecheckerboard="0"
   inkscape:deskcolor="#d1d1d1"
   inkscape:zoom="0.829"
   inkscape:cx="142.34017"
   inkscape:cy="374.54765"
   inkscape:window-width="1920"
   inkscape:window-height="1009"
   inkscape:window-x="1912"
   inkscape:window-y="-8"
   inkscape:window-maximized="1"
   inkscape:current-layer="svg134" />


<path
   style="fill:none"
   d="M 553.78,0.39 C 552.98,0.33 552.17,0.3 551.36,0.3 H 32.69 c -0.81,0 -1.62,0.03 -2.42,0.09 -0.23,0.02 -0.45,0.04 -0.68,0.06 -1.36,0.13 -2.7,0.34 -4.01,0.64 -0.25,0.05 -0.5,0.11 -0.75,0.18 -0.18,0.04 -0.37,0.09 -0.56,0.14 -2.32,0.62 -4.53,1.5 -6.61,2.6 -0.23,0.11 -0.45,0.23 -0.67,0.36 -0.46,0.25 -0.9,0.51 -1.34,0.79 -0.2,0.12 -0.41,0.25 -0.61,0.39 -0.21,0.13 -0.42,0.27 -0.63,0.42 -0.58,0.39 -1.15,0.81 -1.7,1.25 C 12.46,7.41 12.23,7.6 12,7.8 11.63,8.09 11.28,8.41 10.92,8.73 10.71,8.92 10.51,9.11 10.31,9.31 9.95,9.64 9.6,10 9.26,10.36 9.25,10.37 9.23,10.38 9.22,10.4 8.53,11.12 7.88,11.87 7.26,12.66 7.25,12.68 7.24,12.69 7.22,12.71 6.29,13.88 5.45,15.12 4.7,16.42 4.44,16.85 4.19,17.3 3.96,17.75 3.93,17.82 3.89,17.89 3.85,17.96 3.65,18.34 3.46,18.73 3.29,19.12 3.07,19.58 2.86,20.05 2.68,20.52 2.48,21 2.3,21.48 2.13,21.96 1.96,22.43 1.8,22.91 1.66,23.39 c 0,0.02 -0.01,0.05 -0.02,0.08 -0.15,0.48 -0.28,0.97 -0.4,1.46 -0.13,0.5 -0.24,1.01 -0.33,1.52 -0.11,0.52 -0.2,1.04 -0.27,1.56 -0.07,0.46 -0.13,0.91 -0.17,1.37 0,0.07 -0.01,0.15 -0.02,0.22 C 0.38,30.35 0.33,31.1 0.31,31.86 0.3,32.14 0.3,32.41 0.3,32.69 v 699.48 c 0,0.28 0,0.55 0.01,0.83 0.02,0.76 0.07,1.51 0.14,2.26 0.01,0.07 0.02,0.15 0.02,0.22 0.04,0.46 0.1,0.91 0.17,1.37 0.07,0.52 0.16,1.04 0.27,1.56 0.09,0.51 0.2,1.02 0.33,1.52 0.12,0.49 0.25,0.98 0.4,1.46 0.01,0.03 0.02,0.06 0.02,0.08 0.14,0.48 0.3,0.96 0.47,1.43 0.17,0.48 0.35,0.96 0.55,1.44 0.18,0.47 0.39,0.94 0.61,1.4 0.17,0.39 0.36,0.78 0.56,1.16 0.04,0.07 0.08,0.14 0.11,0.21 0.23,0.45 0.48,0.9 0.74,1.33 0.75,1.3 1.59,2.54 2.52,3.71 0.02,0.02 0.03,0.03 0.04,0.05 0.62,0.79 1.27,1.54 1.96,2.26 0.01,0.02 0.03,0.03 0.04,0.04 0.34,0.36 0.69,0.72 1.05,1.05 0.2,0.2 0.4,0.39 0.61,0.58 0.36,0.32 0.71,0.64 1.08,0.93 0.23,0.2 0.46,0.39 0.71,0.58 0.55,0.44 1.12,0.86 1.7,1.25 0.21,0.15 0.42,0.29 0.63,0.42 0.2,0.14 0.41,0.27 0.61,0.39 0.44,0.28 0.88,0.54 1.34,0.79 0.22,0.13 0.44,0.25 0.67,0.36 2.08,1.1 4.29,1.98 6.61,2.6 0.19,0.05 0.38,0.1 0.56,0.14 0.25,0.07 0.5,0.13 0.75,0.18 1.31,0.3 2.65,0.51 4.01,0.64 0.23,0.02 0.45,0.04 0.68,0.06 0.8,0.06 1.61,0.09 2.42,0.09 h 518.67 c 0.81,0 1.62,-0.03 2.42,-0.09 0.25,-0.02 0.51,-0.04 0.76,-0.07 1.34,-0.13 2.64,-0.34 3.92,-0.63 0.26,-0.05 0.51,-0.11 0.76,-0.18 0.22,-0.05 0.45,-0.11 0.66,-0.17 2.28,-0.62 4.46,-1.49 6.51,-2.57 0.23,-0.12 0.45,-0.24 0.67,-0.36 0.9,-0.5 1.77,-1.04 2.62,-1.62 0.19,-0.14 0.39,-0.28 0.59,-0.42 0.36,-0.26 0.72,-0.53 1.07,-0.81 0.92,-0.72 1.79,-1.49 2.63,-2.31 0.19,-0.18 0.37,-0.36 0.55,-0.55 0.1,-0.09 0.19,-0.19 0.27,-0.28 0.09,-0.09 0.18,-0.18 0.25,-0.27 0.28,-0.28 0.54,-0.57 0.79,-0.87 0.24,-0.27 0.48,-0.56 0.71,-0.85 0.1,-0.12 0.2,-0.24 0.29,-0.36 0.06,-0.07 0.12,-0.14 0.17,-0.22 0.24,-0.31 0.48,-0.62 0.71,-0.94 0.01,-0.03 0.03,-0.05 0.06,-0.08 0.27,-0.38 0.53,-0.78 0.79,-1.17 0.02,-0.04 0.05,-0.08 0.08,-0.12 0.25,-0.39 0.49,-0.78 0.71,-1.18 0.26,-0.43 0.5,-0.88 0.74,-1.33 0.04,-0.07 0.07,-0.14 0.11,-0.21 0.2,-0.38 0.39,-0.77 0.56,-1.16 0.22,-0.46 0.42,-0.93 0.61,-1.4 0.2,-0.47 0.38,-0.95 0.55,-1.44 0.52,-1.45 0.93,-2.95 1.22,-4.49 0.11,-0.52 0.2,-1.04 0.27,-1.56 0.07,-0.46 0.13,-0.91 0.17,-1.37 0,-0.07 0.01,-0.15 0.02,-0.22 0.03,-0.23 0.05,-0.47 0.05,-0.71 0.03,-0.29 0.05,-0.58 0.06,-0.87 0.03,-0.5 0.04,-1 0.04,-1.51 V 32.69 c 0,-0.51 -0.01,-1.01 -0.04,-1.51 -0.01,-0.29 -0.03,-0.58 -0.06,-0.87 0,-0.24 -0.02,-0.48 -0.05,-0.71 -0.01,-0.07 -0.02,-0.15 -0.02,-0.22 -0.04,-0.46 -0.1,-0.91 -0.17,-1.37 -0.07,-0.52 -0.16,-1.04 -0.27,-1.56 -0.29,-1.54 -0.7,-3.04 -1.22,-4.49 -0.17,-0.49 -0.35,-0.97 -0.55,-1.44 -0.19,-0.47 -0.39,-0.94 -0.61,-1.4 -0.17,-0.39 -0.36,-0.78 -0.56,-1.16 -0.04,-0.07 -0.07,-0.14 -0.11,-0.21 -0.24,-0.45 -0.48,-0.9 -0.74,-1.33 -0.22,-0.4 -0.46,-0.79 -0.71,-1.18 -0.03,-0.04 -0.06,-0.08 -0.08,-0.12 -0.26,-0.39 -0.52,-0.79 -0.79,-1.17 -0.03,-0.03 -0.05,-0.05 -0.06,-0.08 -0.23,-0.32 -0.47,-0.63 -0.71,-0.94 -0.05,-0.08 -0.11,-0.15 -0.17,-0.22 -0.09,-0.12 -0.19,-0.24 -0.29,-0.36 -0.23,-0.29 -0.47,-0.58 -0.71,-0.85 -0.25,-0.3 -0.51,-0.59 -0.79,-0.87 -0.07,-0.09 -0.16,-0.18 -0.25,-0.27 -0.08,-0.09 -0.17,-0.19 -0.27,-0.28 -0.18,-0.19 -0.36,-0.37 -0.55,-0.55 -0.84,-0.82 -1.71,-1.59 -2.63,-2.31 -0.35,-0.28 -0.71,-0.55 -1.07,-0.81 -0.2,-0.14 -0.4,-0.28 -0.59,-0.42 -0.85,-0.58 -1.72,-1.12 -2.62,-1.62 -0.22,-0.12 -0.44,-0.24 -0.67,-0.36 -2.05,-1.08 -4.23,-1.95 -6.51,-2.57 -0.21,-0.06 -0.44,-0.12 -0.66,-0.17 -0.25,-0.07 -0.5,-0.13 -0.76,-0.18 -1.28,-0.29 -2.58,-0.5 -3.92,-0.63 -0.25,-0.03 -0.51,-0.05 -0.76,-0.07 z m -2.42,2.91 c 16.21,0 29.39,13.18 29.39,29.39 v 699.48 c 0,16.21 -13.18,29.39 -29.39,29.39 H 32.69 C 16.48,761.56 3.3,748.38 3.3,732.17 V 32.69 C 3.3,16.48 16.48,3.3 32.69,3.3 Z"
   id="path98" /><path
   style="fill:#dfdfdf"
   d="M 551.36,0 H 32.69 C 14.67,0 0,14.67 0,32.69 v 699.48 c 0,18.03 14.67,32.69 32.69,32.69 h 518.67 c 18.02,0 32.69,-14.66 32.69,-32.69 V 32.69 C 584.05,14.67 569.38,0 551.36,0 Z m 0,0.3 c 0.81,0 1.62,0.03 2.42,0.09 0.25,0.02 0.51,0.04 0.76,0.07 1.34,0.13 2.64,0.34 3.92,0.63 0.26,0.05 0.51,0.11 0.76,0.18 0.22,0.05 0.45,0.11 0.66,0.17 2.28,0.62 4.46,1.49 6.51,2.57 0.23,0.12 0.45,0.24 0.67,0.36 0.9,0.5 1.77,1.04 2.62,1.62 0.19,0.14 0.39,0.28 0.59,0.42 0.36,0.26 0.72,0.53 1.07,0.81 0.92,0.72 1.79,1.49 2.63,2.31 0.19,0.18 0.37,0.36 0.55,0.55 0.1,0.09 0.19,0.19 0.27,0.28 0.09,0.09 0.18,0.18 0.25,0.27 0.28,0.28 0.54,0.57 0.79,0.87 0.24,0.27 0.48,0.56 0.71,0.85 0.1,0.12 0.2,0.24 0.29,0.36 0.06,0.07 0.12,0.14 0.17,0.22 0.24,0.31 0.48,0.62 0.71,0.94 0.01,0.03 0.03,0.05 0.06,0.08 0.27,0.38 0.53,0.78 0.79,1.17 0.02,0.04 0.05,0.08 0.08,0.12 0.25,0.39 0.49,0.78 0.71,1.18 0.26,0.43 0.5,0.88 0.74,1.33 0.04,0.07 0.07,0.14 0.11,0.21 0.2,0.38 0.39,0.77 0.56,1.16 0.22,0.46 0.42,0.93 0.61,1.4 0.2,0.47 0.38,0.95 0.55,1.44 0.52,1.45 0.93,2.95 1.22,4.49 0.11,0.52 0.2,1.04 0.27,1.56 0.07,0.46 0.13,0.91 0.17,1.37 0,0.07 0.01,0.15 0.02,0.22 0.03,0.23 0.05,0.47 0.05,0.71 0.03,0.29 0.05,0.58 0.06,0.87 0.03,0.5 0.04,1 0.04,1.51 v 699.48 c 0,0.51 -0.01,1.01 -0.04,1.51 -0.01,0.29 -0.03,0.58 -0.06,0.87 0,0.24 -0.02,0.48 -0.05,0.71 -0.01,0.07 -0.02,0.15 -0.02,0.22 -0.04,0.46 -0.1,0.91 -0.17,1.37 -0.07,0.52 -0.16,1.04 -0.27,1.56 -0.29,1.54 -0.7,3.04 -1.22,4.49 -0.17,0.49 -0.35,0.97 -0.55,1.44 -0.19,0.47 -0.39,0.94 -0.61,1.4 -0.17,0.39 -0.36,0.78 -0.56,1.16 -0.04,0.07 -0.07,0.14 -0.11,0.21 -0.24,0.45 -0.48,0.9 -0.74,1.33 -0.22,0.4 -0.46,0.79 -0.71,1.18 -0.03,0.04 -0.06,0.08 -0.08,0.12 -0.26,0.39 -0.52,0.79 -0.79,1.17 -0.03,0.03 -0.05,0.05 -0.06,0.08 -0.23,0.32 -0.47,0.63 -0.71,0.94 -0.05,0.08 -0.11,0.15 -0.17,0.22 -0.09,0.12 -0.19,0.24 -0.29,0.36 -0.23,0.29 -0.47,0.58 -0.71,0.85 -0.25,0.3 -0.51,0.59 -0.79,0.87 -0.07,0.09 -0.16,0.18 -0.25,0.27 -0.08,0.09 -0.17,0.19 -0.27,0.28 -0.18,0.19 -0.36,0.37 -0.55,0.55 -0.84,0.82 -1.71,1.59 -2.63,2.31 -0.35,0.28 -0.71,0.55 -1.07,0.81 -0.2,0.14 -0.4,0.28 -0.59,0.42 -0.85,0.58 -1.72,1.12 -2.62,1.62 -0.22,0.12 -0.44,0.24 -0.67,0.36 -2.05,1.08 -4.23,1.95 -6.51,2.57 -0.21,0.06 -0.44,0.12 -0.66,0.17 -0.25,0.07 -0.5,0.13 -0.76,0.18 -1.28,0.29 -2.58,0.5 -3.92,0.63 -0.25,0.03 -0.51,0.05 -0.76,0.07 -0.8,0.06 -1.61,0.09 -2.42,0.09 H 32.69 c -0.81,0 -1.62,-0.03 -2.42,-0.09 -0.23,-0.02 -0.45,-0.04 -0.68,-0.06 -1.36,-0.13 -2.7,-0.34 -4.01,-0.64 -0.25,-0.05 -0.5,-0.11 -0.75,-0.18 -0.18,-0.04 -0.37,-0.09 -0.56,-0.14 -2.32,-0.62 -4.53,-1.5 -6.61,-2.6 -0.23,-0.11 -0.45,-0.23 -0.67,-0.36 -0.46,-0.25 -0.9,-0.51 -1.34,-0.79 -0.2,-0.12 -0.41,-0.25 -0.61,-0.39 -0.21,-0.13 -0.42,-0.27 -0.63,-0.42 -0.58,-0.39 -1.15,-0.81 -1.7,-1.25 -0.25,-0.19 -0.48,-0.38 -0.71,-0.58 -0.37,-0.29 -0.72,-0.61 -1.08,-0.93 -0.21,-0.19 -0.41,-0.38 -0.61,-0.58 C 9.95,755.22 9.6,754.86 9.26,754.5 9.25,754.49 9.23,754.48 9.22,754.46 8.53,753.74 7.88,752.99 7.26,752.2 7.25,752.18 7.24,752.17 7.22,752.15 6.29,750.98 5.45,749.74 4.7,748.44 4.44,748.01 4.19,747.56 3.96,747.11 3.93,747.04 3.89,746.97 3.85,746.9 c -0.2,-0.38 -0.39,-0.77 -0.56,-1.16 -0.22,-0.46 -0.43,-0.93 -0.61,-1.4 -0.2,-0.48 -0.38,-0.96 -0.55,-1.44 -0.17,-0.47 -0.33,-0.95 -0.47,-1.43 0,-0.02 -0.01,-0.05 -0.02,-0.08 -0.15,-0.48 -0.28,-0.97 -0.4,-1.46 -0.13,-0.5 -0.24,-1.01 -0.33,-1.52 -0.11,-0.52 -0.2,-1.04 -0.27,-1.56 -0.07,-0.46 -0.13,-0.91 -0.17,-1.37 0,-0.07 -0.01,-0.15 -0.02,-0.22 C 0.38,734.51 0.33,733.76 0.31,733 0.3,732.72 0.3,732.45 0.3,732.17 V 32.69 c 0,-0.28 0,-0.55 0.01,-0.83 C 0.33,31.1 0.38,30.35 0.45,29.6 0.46,29.53 0.47,29.45 0.47,29.38 0.51,28.92 0.57,28.47 0.64,28.01 0.71,27.49 0.8,26.97 0.91,26.45 1,25.94 1.11,25.43 1.24,24.93 1.36,24.44 1.49,23.95 1.64,23.47 1.65,23.44 1.66,23.41 1.66,23.39 1.8,22.91 1.96,22.43 2.13,21.96 2.3,21.48 2.48,21 2.68,20.52 2.86,20.05 3.07,19.58 3.29,19.12 3.46,18.73 3.65,18.34 3.85,17.96 3.89,17.89 3.93,17.82 3.96,17.75 4.19,17.3 4.44,16.85 4.7,16.42 5.45,15.12 6.29,13.88 7.22,12.71 7.24,12.69 7.25,12.68 7.26,12.66 7.88,11.87 8.53,11.12 9.22,10.4 9.23,10.38 9.25,10.37 9.26,10.36 9.6,10 9.95,9.64 10.31,9.31 10.51,9.11 10.71,8.92 10.92,8.73 11.28,8.41 11.63,8.09 12,7.8 c 0.23,-0.2 0.46,-0.39 0.71,-0.58 0.55,-0.44 1.12,-0.86 1.7,-1.25 0.21,-0.15 0.42,-0.29 0.63,-0.42 0.2,-0.14 0.41,-0.27 0.61,-0.39 0.44,-0.28 0.88,-0.54 1.34,-0.79 0.22,-0.13 0.44,-0.25 0.67,-0.36 2.08,-1.1 4.29,-1.98 6.61,-2.6 0.19,-0.05 0.38,-0.1 0.56,-0.14 0.25,-0.07 0.5,-0.13 0.75,-0.18 1.31,-0.3 2.65,-0.51 4.01,-0.64 0.23,-0.02 0.45,-0.04 0.68,-0.06 0.8,-0.06 1.61,-0.09 2.42,-0.09 z"
   id="path99" /><path
   style="fill:url(#SVGID_00000072993859886619133030000006421232464484377005_);stroke-width:1.00663"
   d="M 561.48904,31.866659 V 736.3357 c 0,4.38103 -3.56071,7.94628 -7.9384,7.94628 H 31.698862 c -4.377692,0 -7.938402,-3.56425 -7.938402,-7.94628 V 31.866659 c 0,-4.382033 3.561717,-7.946275 7.938402,-7.946275 H 553.55064 c 4.37669,0 7.9384,3.564242 7.9384,7.946275 z"
   id="path103" /><path
   style="display:none;fill:url(#SVGID_00000130648794570038701060000000986233333257405369_);stroke-width:1.00663"
   d="M 553.55064,23.416818 H 31.698862 c -4.654379,0 -8.441469,3.790847 -8.441469,8.449841 V 736.3357 c 0,4.659 3.78709,8.44984 8.441469,8.44984 H 553.55064 c 4.65438,0 8.44147,-3.79084 8.44147,-8.44984 V 31.866659 c 0,-4.658994 -3.78709,-8.449841 -8.44147,-8.449841 z m 0,0.503566 c 4.37769,0 7.9384,3.564242 7.9384,7.946275 V 736.3357 c 0,4.38103 -3.56071,7.94628 -7.9384,7.94628 H 31.698862 c -4.377692,0 -7.938402,-3.56425 -7.938402,-7.94628 V 31.866659 c 0,-4.382033 3.561717,-7.946275 7.938402,-7.946275 z"
   id="path108" /><path
   style="fill:#030303"
   d="M 551.36,3.3 H 32.69 C 16.48,3.3 3.3,16.48 3.3,32.69 v 699.48 c 0,16.21 13.18,29.39 29.39,29.39 h 518.67 c 16.21,0 29.39,-13.18 29.39,-29.39 V 32.69 C 580.75,16.48 567.57,3.3 551.36,3.3 Z m 0,21 c 4.626,0 8.39,3.764 8.39,8.39 v 699.48 c 0,4.626 -3.764,8.39 -8.39,8.39 H 32.69 c -4.626,0 -8.39,-3.764 -8.39,-8.39 V 32.69 c 0,-4.626 3.764,-8.39 8.39,-8.39 z"
   id="path109" /><path
   style="fill:url(#SVGID_00000082337645550211461570000012722149020284056472_)"
   d="m 0.34,733.68 c 0.02,0.35 0.04,0.7 0.07,1.05 0.01,0.18 0.02,0.35 0.04,0.53 0.01,0.07 0.02,0.15 0.02,0.22 0.05,0.46 0.11,0.92 0.17,1.37 0.08,0.53 0.17,1.04 0.27,1.56 0.1,0.51 0.21,1.02 0.33,1.52 0.13,0.49 0.26,0.98 0.4,1.46 0.01,0.03 0.02,0.06 0.02,0.08 0.15,0.48 0.31,0.96 0.47,1.43 0.17,0.49 0.35,0.97 0.55,1.44 0.19,0.47 0.39,0.94 0.61,1.4 0.18,0.39 0.37,0.78 0.56,1.16 0.04,0.07 0.08,0.14 0.11,0.21 0.24,0.45 0.48,0.9 0.74,1.33 0.76,1.3 1.6,2.54 2.52,3.71 0.02,0.02 0.03,0.03 0.04,0.05 0.62,0.78 1.28,1.54 1.96,2.26 0.01,0.02 0.03,0.03 0.04,0.04 0.34,0.36 0.69,0.71 1.05,1.05 0.2,0.2 0.4,0.39 0.61,0.58 0.35,0.31 0.71,0.63 1.08,0.93 0.23,0.2 0.46,0.39 0.71,0.58 0.55,0.43 1.12,0.85 1.7,1.25 0.21,0.14 0.42,0.28 0.63,0.42 0.2,0.13 0.41,0.26 0.61,0.39 0.44,0.28 0.88,0.54 1.34,0.79 0.22,0.12 0.45,0.24 0.67,0.36 2.08,1.1 4.29,1.98 6.61,2.6 0.18,0.05 0.37,0.1 0.56,0.14 0.25,0.07 0.5,0.13 0.75,0.18 1.31,0.3 2.65,0.51 4.01,0.64 0.23,0.02 0.45,0.04 0.68,0.06 0.8,0.06 1.61,0.09 2.42,0.09 h 518.67 c 0.81,0 1.62,-0.03 2.42,-0.09 0.25,-0.02 0.51,-0.04 0.76,-0.07 1.34,-0.13 2.64,-0.34 3.92,-0.63 0.26,-0.05 0.51,-0.11 0.76,-0.18 0.22,-0.05 0.45,-0.11 0.66,-0.17 2.28,-0.62 4.46,-1.49 6.51,-2.57 0.23,-0.12 0.45,-0.24 0.67,-0.36 0.9,-0.5 1.77,-1.04 2.62,-1.62 0.19,-0.14 0.39,-0.28 0.59,-0.42 0.36,-0.26 0.72,-0.53 1.07,-0.81 0.92,-0.72 1.79,-1.49 2.63,-2.31 0.19,-0.18 0.37,-0.36 0.55,-0.55 0.1,-0.09 0.19,-0.19 0.27,-0.28 0.09,-0.09 0.18,-0.18 0.25,-0.27 0.28,-0.28 0.54,-0.57 0.79,-0.87 0.24,-0.27 0.48,-0.56 0.71,-0.85 0.1,-0.12 0.2,-0.24 0.29,-0.36 0.06,-0.07 0.12,-0.14 0.17,-0.22 0.24,-0.31 0.48,-0.62 0.71,-0.94 0.01,-0.03 0.03,-0.05 0.06,-0.08 0.27,-0.38 0.53,-0.78 0.79,-1.17 0.02,-0.04 0.05,-0.08 0.08,-0.12 0.24,-0.39 0.48,-0.78 0.71,-1.18 0.26,-0.43 0.5,-0.88 0.74,-1.33 0.04,-0.07 0.07,-0.14 0.11,-0.21 0.19,-0.38 0.38,-0.77 0.56,-1.16 0.22,-0.46 0.42,-0.93 0.61,-1.4 0.2,-0.47 0.38,-0.95 0.55,-1.44 0.51,-1.45 0.92,-2.95 1.22,-4.49 0.1,-0.52 0.19,-1.03 0.27,-1.56 0.06,-0.45 0.12,-0.91 0.17,-1.37 0,-0.07 0.01,-0.15 0.02,-0.22 0.03,-0.23 0.05,-0.47 0.05,-0.71 -0.01,0.19 -0.03,0.38 -0.05,0.57 -0.05,0.48 -0.11,0.96 -0.18,1.43 -0.03,0.23 -0.07,0.46 -0.12,0.68 -0.04,0.29 -0.09,0.57 -0.15,0.85 -0.08,0.43 -0.18,0.85 -0.29,1.26 -0.11,0.45 -0.23,0.9 -0.37,1.34 -0.11,0.37 -0.23,0.73 -0.36,1.09 -0.26,0.77 -0.55,1.53 -0.89,2.26 -0.09,0.23 -0.2,0.46 -0.31,0.68 -0.16,0.35 -0.33,0.7 -0.51,1.04 -0.02,0.03 -0.03,0.06 -0.05,0.09 -0.21,0.39 -0.42,0.77 -0.64,1.15 -0.01,0.02 -0.02,0.04 -0.03,0.05 -0.16,0.27 -0.32,0.54 -0.49,0.8 -0.14,0.23 -0.29,0.46 -0.44,0.68 -0.03,0.05 -0.07,0.1 -0.11,0.15 -0.24,0.36 -0.5,0.72 -0.76,1.07 -0.25,0.34 -0.51,0.68 -0.79,1.01 -0.05,0.08 -0.11,0.15 -0.18,0.21 -0.25,0.33 -0.53,0.65 -0.83,0.96 -0.31,0.35 -0.64,0.69 -0.97,1.02 -0.28,0.29 -0.58,0.58 -0.89,0.86 -0.08,0.07 -0.16,0.15 -0.25,0.23 -0.31,0.27 -0.63,0.54 -0.95,0.81 -0.36,0.31 -0.73,0.6 -1.11,0.87 -0.3,0.23 -0.6,0.45 -0.91,0.65 -0.15,0.12 -0.31,0.22 -0.47,0.33 -0.19,0.13 -0.39,0.26 -0.6,0.38 -0.19,0.13 -0.38,0.25 -0.58,0.36 -0.39,0.23 -0.78,0.46 -1.18,0.67 -0.24,0.13 -0.49,0.26 -0.74,0.38 -0.58,0.29 -1.18,0.57 -1.79,0.82 -0.19,0.08 -0.39,0.16 -0.59,0.24 -0.3,0.12 -0.6,0.23 -0.91,0.34 -0.39,0.14 -0.79,0.27 -1.19,0.39 -0.4,0.13 -0.81,0.24 -1.22,0.35 -0.02,0.01 -0.04,0.01 -0.06,0.01 -0.45,0.12 -0.9,0.23 -1.35,0.32 -0.03,0 -0.05,0.01 -0.07,0.01 -0.34,0.07 -0.68,0.14 -1.02,0.18 -1.59,0.28 -3.22,0.42 -4.89,0.42 H 29.69 c -0.58,0 -1.17,-0.02 -1.74,-0.06 -0.31,-0.01 -0.62,-0.03 -0.92,-0.06 -0.26,-0.02 -0.52,-0.05 -0.78,-0.09 -0.13,-0.01 -0.25,-0.03 -0.37,-0.04 -0.35,-0.04 -0.69,-0.09 -1.03,-0.16 -0.05,-0.01 -0.09,-0.01 -0.14,-0.02 -0.21,-0.03 -0.42,-0.07 -0.63,-0.11 -0.1,-0.02 -0.2,-0.04 -0.3,-0.06 -0.04,-0.01 -0.07,-0.02 -0.11,-0.02 -0.31,-0.06 -0.61,-0.13 -0.92,-0.21 -0.13,-0.03 -0.26,-0.06 -0.39,-0.1 -0.43,-0.11 -0.86,-0.23 -1.28,-0.36 -0.42,-0.13 -0.84,-0.26 -1.24,-0.41 -0.02,-0.01 -0.03,-0.01 -0.05,-0.02 -0.21,-0.07 -0.41,-0.14 -0.61,-0.23 -0.03,-0.01 -0.05,-0.02 -0.08,-0.03 -0.23,-0.08 -0.45,-0.17 -0.67,-0.26 -0.02,-0.01 -0.03,-0.01 -0.05,-0.02 -0.61,-0.26 -1.2,-0.53 -1.78,-0.82 -0.25,-0.12 -0.49,-0.25 -0.74,-0.38 -0.4,-0.21 -0.79,-0.44 -1.18,-0.67 -0.2,-0.11 -0.39,-0.23 -0.58,-0.36 -0.2,-0.12 -0.4,-0.25 -0.6,-0.38 -0.16,-0.1 -0.32,-0.21 -0.47,-0.33 -0.31,-0.2 -0.61,-0.42 -0.91,-0.65 -0.38,-0.27 -0.75,-0.56 -1.11,-0.87 -0.28,-0.22 -0.56,-0.46 -0.83,-0.71 -0.04,-0.03 -0.08,-0.07 -0.12,-0.1 C 9.97,753.95 9.89,753.87 9.81,753.8 9.78,753.77 9.75,753.74 9.72,753.72 9.45,753.46 9.18,753.2 8.92,752.94 8.65,752.68 8.4,752.42 8.16,752.16 8.15,752.14 8.13,752.12 8.11,752.1 8,751.99 7.89,751.87 7.79,751.74 7.56,751.5 7.35,751.25 7.15,751 7.08,750.92 7.01,750.84 6.94,750.75 6.67,750.42 6.4,750.09 6.15,749.74 5.95,749.49 5.77,749.24 5.6,748.98 5.58,748.96 5.56,748.93 5.54,748.9 5.4,748.7 5.26,748.5 5.13,748.3 4.91,747.96 4.68,747.61 4.47,747.25 4.46,747.23 4.45,747.21 4.43,747.19 4.29,746.95 4.15,746.71 4.02,746.46 3.94,746.33 3.86,746.19 3.79,746.05 3.65,745.79 3.51,745.53 3.39,745.27 3.21,744.93 3.04,744.57 2.89,744.21 2.77,743.95 2.65,743.69 2.54,743.43 2.5,743.33 2.46,743.24 2.42,743.14 2.31,742.86 2.2,742.58 2.1,742.29 2.03,742.12 1.97,741.94 1.91,741.76 1.9,741.72 1.88,741.69 1.87,741.65 1.76,741.33 1.66,741.01 1.56,740.68 1.45,740.34 1.35,739.99 1.27,739.64 1.25,739.59 1.24,739.55 1.23,739.5 1.2,739.38 1.17,739.26 1.14,739.14 1.05,738.81 0.98,738.47 0.91,738.13 0.91,738.11 0.9,738.1 0.9,738.08 0.84,737.8 0.79,737.52 0.75,737.23 0.7,737.01 0.66,736.78 0.63,736.55 0.56,736.08 0.5,735.6 0.45,735.12 0.4,734.65 0.36,734.16 0.34,733.68 Z"
   id="path115" /><path
   style="fill:#dfdfdf"
   d="m 0.3,732.17 c 0,0.506 0.013,1.01 0.039,1.51 C 0.315,733.18 0.3,732.677 0.3,732.17 Z"
   id="path116" /><path
   style="fill:url(#SVGID_00000158019403768125075550000017935509303531322007_)"
   d="M 551.36,0.3 H 32.69 c -0.81,0 -1.62,0.03 -2.42,0.09 -0.23,0.02 -0.45,0.04 -0.68,0.06 -1.36,0.13 -2.7,0.34 -4.01,0.64 -0.25,0.05 -0.5,0.11 -0.75,0.18 -0.19,0.04 -0.38,0.09 -0.56,0.14 -2.32,0.62 -4.53,1.5 -6.61,2.6 -0.22,0.12 -0.45,0.24 -0.67,0.36 -0.46,0.25 -0.9,0.51 -1.34,0.79 -0.2,0.13 -0.41,0.26 -0.61,0.39 -0.21,0.14 -0.42,0.28 -0.63,0.42 -0.58,0.4 -1.15,0.82 -1.7,1.25 C 12.46,7.41 12.23,7.6 12,7.8 11.63,8.1 11.27,8.42 10.92,8.73 10.71,8.92 10.51,9.11 10.31,9.31 9.95,9.65 9.6,10 9.26,10.36 9.25,10.37 9.23,10.38 9.22,10.4 8.54,11.12 7.88,11.88 7.26,12.66 7.25,12.68 7.24,12.69 7.22,12.71 6.3,13.88 5.46,15.12 4.7,16.42 4.44,16.85 4.2,17.3 3.96,17.75 c -0.03,0.07 -0.07,0.14 -0.11,0.21 -0.19,0.38 -0.38,0.77 -0.56,1.16 -0.22,0.46 -0.42,0.93 -0.61,1.4 -0.2,0.47 -0.38,0.95 -0.55,1.44 -0.16,0.47 -0.32,0.95 -0.47,1.43 0,0.02 -0.01,0.05 -0.02,0.08 -0.14,0.48 -0.27,0.97 -0.4,1.46 -0.12,0.5 -0.23,1.01 -0.33,1.52 -0.1,0.52 -0.19,1.03 -0.27,1.56 -0.06,0.45 -0.12,0.91 -0.17,1.37 0,0.07 -0.01,0.15 -0.02,0.22 C 0.43,29.78 0.42,29.95 0.41,30.13 0.42,30 0.44,29.87 0.45,29.74 0.49,29.26 0.55,28.78 0.63,28.31 0.66,28.08 0.7,27.85 0.75,27.63 0.79,27.34 0.84,27.06 0.9,26.78 1,26.3 1.11,25.83 1.23,25.36 c 0.1,-0.4 0.21,-0.8 0.33,-1.18 0.1,-0.33 0.2,-0.65 0.31,-0.97 0.21,-0.61 0.43,-1.2 0.67,-1.78 0.11,-0.26 0.23,-0.52 0.35,-0.78 0.15,-0.36 0.32,-0.72 0.5,-1.06 0.13,-0.26 0.26,-0.52 0.4,-0.78 0.07,-0.14 0.15,-0.28 0.23,-0.41 0.14,-0.27 0.29,-0.53 0.45,-0.79 0.21,-0.36 0.44,-0.71 0.66,-1.05 0.13,-0.2 0.27,-0.4 0.41,-0.6 0.19,-0.29 0.4,-0.57 0.61,-0.84 0.25,-0.34 0.51,-0.68 0.79,-1.01 0.07,-0.09 0.14,-0.17 0.21,-0.25 0.2,-0.25 0.41,-0.5 0.64,-0.74 0.1,-0.13 0.21,-0.25 0.32,-0.36 0.26,-0.29 0.52,-0.57 0.81,-0.84 0.28,-0.29 0.58,-0.58 0.89,-0.86 0.08,-0.07 0.16,-0.15 0.25,-0.23 0.31,-0.27 0.63,-0.54 0.95,-0.81 0.36,-0.31 0.73,-0.6 1.11,-0.87 C 12.42,8.92 12.72,8.7 13.03,8.5 13.18,8.38 13.34,8.27 13.5,8.17 13.7,8.04 13.9,7.91 14.1,7.79 14.29,7.66 14.48,7.54 14.68,7.43 15.07,7.2 15.46,6.97 15.86,6.76 16.11,6.63 16.35,6.5 16.6,6.38 17.18,6.09 17.77,5.82 18.38,5.56 18.62,5.46 18.86,5.37 19.1,5.28 19.34,5.18 19.59,5.09 19.84,5 20.24,4.85 20.66,4.72 21.08,4.59 21.5,4.46 21.93,4.34 22.36,4.23 22.82,4.1 23.3,4 23.78,3.9 24.13,3.82 24.49,3.76 24.85,3.71 26.42,3.44 28.04,3.3 29.69,3.3 h 524.67 c 1.67,0 3.3,0.14 4.89,0.42 0.34,0.04 0.68,0.11 1.02,0.18 0.02,0 0.04,0.01 0.07,0.01 0.45,0.09 0.9,0.2 1.35,0.32 0.02,0 0.04,0 0.06,0.01 0.41,0.11 0.82,0.22 1.22,0.35 0.4,0.12 0.8,0.25 1.19,0.39 0.31,0.11 0.61,0.22 0.91,0.34 0.2,0.08 0.4,0.16 0.59,0.24 0.61,0.25 1.21,0.53 1.79,0.82 0.25,0.12 0.5,0.25 0.74,0.38 0.4,0.21 0.79,0.44 1.18,0.67 0.2,0.11 0.39,0.23 0.58,0.36 0.21,0.12 0.41,0.25 0.6,0.38 0.16,0.11 0.32,0.21 0.47,0.33 0.31,0.2 0.61,0.42 0.91,0.65 0.38,0.27 0.75,0.56 1.11,0.87 0.32,0.27 0.64,0.54 0.95,0.81 0.09,0.08 0.17,0.16 0.25,0.23 0.31,0.28 0.61,0.57 0.89,0.86 0.33,0.33 0.66,0.67 0.97,1.02 0.3,0.31 0.58,0.63 0.83,0.96 0.07,0.06 0.13,0.13 0.18,0.21 0.28,0.33 0.54,0.67 0.79,1.01 0.26,0.35 0.52,0.71 0.76,1.07 0.04,0.05 0.08,0.1 0.11,0.15 0.15,0.22 0.3,0.45 0.44,0.68 0.17,0.26 0.33,0.53 0.49,0.8 0.01,0.01 0.02,0.03 0.03,0.05 0.22,0.38 0.43,0.76 0.64,1.15 0.02,0.03 0.03,0.06 0.05,0.09 0.18,0.34 0.35,0.69 0.51,1.04 0.11,0.22 0.22,0.45 0.31,0.68 0.34,0.73 0.63,1.49 0.89,2.26 0.13,0.36 0.25,0.72 0.36,1.09 0.14,0.44 0.26,0.89 0.37,1.34 0.11,0.41 0.21,0.83 0.29,1.26 0.06,0.28 0.11,0.56 0.15,0.85 0.05,0.22 0.09,0.45 0.12,0.68 0.07,0.47 0.13,0.95 0.18,1.43 0.02,0.19 0.04,0.38 0.05,0.57 0,-0.24 -0.02,-0.48 -0.05,-0.71 -0.01,-0.07 -0.02,-0.15 -0.02,-0.22 -0.05,-0.46 -0.11,-0.92 -0.17,-1.37 -0.08,-0.53 -0.17,-1.04 -0.27,-1.56 -0.3,-1.54 -0.71,-3.04 -1.22,-4.49 -0.17,-0.49 -0.35,-0.97 -0.55,-1.44 -0.19,-0.47 -0.39,-0.94 -0.61,-1.4 -0.18,-0.39 -0.37,-0.78 -0.56,-1.16 -0.04,-0.07 -0.07,-0.14 -0.11,-0.21 -0.24,-0.45 -0.48,-0.9 -0.74,-1.33 -0.23,-0.4 -0.47,-0.79 -0.71,-1.18 -0.03,-0.04 -0.06,-0.08 -0.08,-0.12 -0.26,-0.39 -0.52,-0.79 -0.79,-1.17 -0.03,-0.03 -0.05,-0.05 -0.06,-0.08 -0.23,-0.32 -0.47,-0.63 -0.71,-0.94 -0.05,-0.08 -0.11,-0.15 -0.17,-0.22 -0.09,-0.12 -0.19,-0.24 -0.29,-0.36 -0.23,-0.29 -0.47,-0.58 -0.71,-0.85 -0.25,-0.3 -0.51,-0.59 -0.79,-0.87 -0.07,-0.09 -0.16,-0.18 -0.25,-0.27 -0.08,-0.09 -0.17,-0.19 -0.27,-0.28 -0.18,-0.19 -0.36,-0.37 -0.55,-0.55 -0.84,-0.82 -1.71,-1.59 -2.63,-2.31 -0.35,-0.28 -0.71,-0.55 -1.07,-0.81 -0.2,-0.14 -0.4,-0.28 -0.59,-0.42 -0.85,-0.58 -1.72,-1.12 -2.62,-1.62 -0.22,-0.12 -0.44,-0.24 -0.67,-0.36 -2.05,-1.08 -4.23,-1.95 -6.51,-2.57 -0.21,-0.06 -0.44,-0.12 -0.66,-0.17 -0.25,-0.07 -0.5,-0.13 -0.76,-0.18 -1.28,-0.29 -2.58,-0.5 -3.92,-0.63 -0.25,-0.03 -0.51,-0.05 -0.76,-0.07 -0.8,-0.06 -1.61,-0.09 -2.42,-0.09 z"
   id="path122" /><path
   style="fill:#dfdfdf"
   d="M 0.3,32.69 C 0.3,32.183 0.315,31.68 0.339,31.18 0.313,31.68 0.3,32.183 0.3,32.69 Z"
   id="path123" /><path
   style="display:inline;fill:url(#SVGID_00000009557717682647859880000004614735824555345031_)"
   d="m 554.36,3.3 h -3 c 16.21,0 29.39,13.18 29.39,29.39 v 699.48 c 0,16.21 -13.18,29.39 -29.39,29.39 h 3 c 1.67,0 3.3,-0.14 4.89,-0.42 0.34,-0.04 0.68,-0.11 1.02,-0.18 0.02,0 0.04,-0.01 0.07,-0.01 0.45,-0.09 0.9,-0.2 1.35,-0.32 0.02,0 0.04,0 0.06,-0.01 0.41,-0.11 0.82,-0.22 1.22,-0.35 0.4,-0.12 0.8,-0.25 1.19,-0.39 0.31,-0.11 0.61,-0.22 0.91,-0.34 0.2,-0.08 0.4,-0.16 0.59,-0.24 0.61,-0.25 1.21,-0.53 1.79,-0.82 0.25,-0.12 0.5,-0.25 0.74,-0.38 0.4,-0.21 0.79,-0.44 1.18,-0.67 0.2,-0.11 0.39,-0.23 0.58,-0.36 0.21,-0.12 0.41,-0.25 0.6,-0.38 0.16,-0.1 0.32,-0.21 0.47,-0.33 0.31,-0.2 0.61,-0.42 0.91,-0.65 0.38,-0.28 0.75,-0.57 1.11,-0.87 0.32,-0.27 0.64,-0.54 0.95,-0.81 0.09,-0.08 0.17,-0.16 0.25,-0.23 0.3,-0.28 0.6,-0.57 0.89,-0.86 0.33,-0.33 0.66,-0.67 0.97,-1.02 0.29,-0.31 0.56,-0.63 0.83,-0.96 0.07,-0.06 0.13,-0.13 0.18,-0.21 0.27,-0.33 0.53,-0.66 0.79,-1.01 0.26,-0.35 0.52,-0.71 0.76,-1.07 0.04,-0.05 0.08,-0.1 0.11,-0.15 0.15,-0.22 0.3,-0.45 0.44,-0.68 0.17,-0.26 0.33,-0.53 0.49,-0.8 0.01,-0.01 0.02,-0.03 0.03,-0.05 0.22,-0.38 0.43,-0.76 0.64,-1.15 0.02,-0.03 0.03,-0.06 0.05,-0.09 0.18,-0.34 0.35,-0.69 0.51,-1.04 0.11,-0.22 0.22,-0.45 0.31,-0.68 0.34,-0.73 0.63,-1.49 0.89,-2.26 0.13,-0.36 0.25,-0.72 0.36,-1.09 0.13,-0.44 0.26,-0.89 0.37,-1.34 0.11,-0.41 0.21,-0.83 0.29,-1.26 0.06,-0.28 0.11,-0.56 0.15,-0.85 0.05,-0.22 0.09,-0.45 0.12,-0.68 0.07,-0.47 0.13,-0.95 0.18,-1.43 0.02,-0.19 0.04,-0.38 0.05,-0.57 0.03,-0.29 0.05,-0.58 0.06,-0.87 0.03,-0.5 0.04,-1 0.04,-1.51 V 32.69 c 0,-0.51 -0.01,-1.01 -0.04,-1.51 -0.01,-0.29 -0.03,-0.58 -0.06,-0.87 -0.01,-0.19 -0.03,-0.38 -0.05,-0.57 -0.05,-0.48 -0.11,-0.96 -0.18,-1.43 -0.03,-0.23 -0.07,-0.46 -0.12,-0.68 -0.04,-0.29 -0.09,-0.57 -0.15,-0.85 -0.08,-0.43 -0.18,-0.85 -0.29,-1.26 -0.11,-0.45 -0.24,-0.9 -0.37,-1.34 -0.11,-0.37 -0.23,-0.73 -0.36,-1.09 -0.26,-0.77 -0.55,-1.53 -0.89,-2.26 -0.09,-0.23 -0.2,-0.46 -0.31,-0.68 -0.16,-0.35 -0.33,-0.7 -0.51,-1.04 -0.02,-0.03 -0.03,-0.06 -0.05,-0.09 -0.21,-0.39 -0.42,-0.77 -0.64,-1.15 -0.01,-0.02 -0.02,-0.04 -0.03,-0.05 -0.16,-0.27 -0.32,-0.54 -0.49,-0.8 -0.14,-0.23 -0.29,-0.46 -0.44,-0.68 -0.03,-0.05 -0.07,-0.1 -0.11,-0.15 -0.24,-0.36 -0.5,-0.72 -0.76,-1.07 -0.26,-0.35 -0.52,-0.68 -0.79,-1.01 -0.05,-0.08 -0.11,-0.15 -0.18,-0.21 -0.27,-0.33 -0.54,-0.65 -0.83,-0.96 -0.31,-0.35 -0.64,-0.69 -0.97,-1.02 -0.29,-0.29 -0.59,-0.58 -0.89,-0.86 -0.08,-0.07 -0.16,-0.15 -0.25,-0.23 -0.31,-0.27 -0.63,-0.54 -0.95,-0.81 -0.36,-0.3 -0.73,-0.59 -1.11,-0.87 -0.3,-0.23 -0.6,-0.45 -0.91,-0.65 -0.15,-0.12 -0.31,-0.23 -0.47,-0.33 -0.19,-0.13 -0.39,-0.26 -0.6,-0.38 C 569.76,7.66 569.57,7.54 569.37,7.43 568.98,7.2 568.59,6.97 568.19,6.76 567.95,6.63 567.7,6.5 567.45,6.38 566.87,6.09 566.27,5.81 565.66,5.56 565.47,5.48 565.27,5.4 565.07,5.32 564.77,5.2 564.47,5.09 564.16,4.98 563.77,4.84 563.37,4.71 562.97,4.59 562.57,4.46 562.16,4.35 561.75,4.24 561.73,4.23 561.71,4.23 561.69,4.23 561.24,4.11 560.79,4 560.34,3.91 560.31,3.91 560.29,3.9 560.27,3.9 559.93,3.83 559.59,3.76 559.25,3.72 557.66,3.44 556.03,3.3 554.36,3.3 Z"
   id="path127" /><path
   style="fill:url(#SVGID_00000005985446793678005020000009151590931655295895_)"
   d="m 32.69,3.3 h -3 C 28.04,3.3 26.42,3.44 24.85,3.71 24.49,3.76 24.13,3.82 23.78,3.9 23.3,4 22.82,4.1 22.36,4.23 21.93,4.34 21.5,4.46 21.08,4.59 20.66,4.72 20.24,4.85 19.84,5 19.59,5.09 19.34,5.18 19.1,5.28 18.86,5.37 18.62,5.46 18.38,5.56 17.77,5.82 17.18,6.09 16.6,6.38 16.35,6.5 16.11,6.63 15.86,6.76 c -0.4,0.21 -0.79,0.44 -1.18,0.67 -0.2,0.11 -0.39,0.23 -0.58,0.36 -0.2,0.12 -0.4,0.25 -0.6,0.38 -0.16,0.1 -0.32,0.21 -0.47,0.33 -0.31,0.2 -0.61,0.42 -0.91,0.65 -0.38,0.28 -0.75,0.57 -1.11,0.87 -0.32,0.27 -0.64,0.54 -0.95,0.81 -0.09,0.08 -0.17,0.16 -0.25,0.23 -0.3,0.28 -0.6,0.57 -0.89,0.86 C 8.65,12.19 8.38,12.47 8.11,12.76 8,12.87 7.89,12.99 7.79,13.12 7.57,13.36 7.36,13.61 7.15,13.86 7.08,13.94 7.01,14.02 6.94,14.11 6.67,14.44 6.4,14.77 6.15,15.12 5.94,15.39 5.74,15.67 5.54,15.96 5.4,16.16 5.26,16.36 5.13,16.56 4.91,16.9 4.68,17.25 4.47,17.61 4.31,17.87 4.16,18.13 4.02,18.4 3.94,18.53 3.86,18.67 3.79,18.81 3.65,19.07 3.52,19.33 3.39,19.59 3.21,19.93 3.04,20.29 2.89,20.65 2.77,20.91 2.65,21.17 2.54,21.43 2.3,22.01 2.08,22.6 1.87,23.21 1.76,23.53 1.66,23.85 1.56,24.18 1.44,24.56 1.33,24.96 1.23,25.36 1.11,25.83 1,26.3 0.9,26.78 0.84,27.06 0.79,27.34 0.75,27.63 0.7,27.85 0.66,28.08 0.63,28.31 0.56,28.78 0.5,29.26 0.45,29.74 0.44,29.87 0.42,30 0.41,30.13 0.38,30.48 0.36,30.83 0.34,31.18 0.33,31.41 0.32,31.63 0.31,31.86 0.3,32.14 0.3,32.41 0.3,32.69 v 699.48 c 0,0.28 0,0.55 0.01,0.83 0.01,0.23 0.02,0.45 0.03,0.68 0.02,0.35 0.04,0.7 0.07,1.05 0.01,0.13 0.03,0.26 0.04,0.39 0.05,0.48 0.11,0.96 0.18,1.43 0.03,0.23 0.07,0.46 0.12,0.68 0.04,0.29 0.09,0.57 0.15,0.85 0,0.02 0.01,0.03 0.01,0.05 0.07,0.34 0.14,0.68 0.23,1.01 0.03,0.12 0.06,0.24 0.09,0.36 0.01,0.05 0.02,0.09 0.04,0.14 0.08,0.35 0.18,0.7 0.29,1.04 0.1,0.33 0.2,0.65 0.31,0.97 0.01,0.04 0.03,0.07 0.04,0.11 0.06,0.18 0.12,0.36 0.19,0.53 0.1,0.29 0.21,0.57 0.32,0.85 0.04,0.1 0.08,0.19 0.12,0.29 0.11,0.26 0.23,0.52 0.35,0.78 0.15,0.36 0.32,0.72 0.5,1.06 0.12,0.26 0.26,0.52 0.4,0.78 0.07,0.14 0.15,0.28 0.23,0.41 0.13,0.25 0.27,0.49 0.41,0.73 0.02,0.02 0.03,0.04 0.04,0.06 0.21,0.36 0.44,0.71 0.66,1.05 0.13,0.2 0.27,0.4 0.41,0.6 0.02,0.03 0.04,0.06 0.06,0.08 0.18,0.26 0.36,0.52 0.55,0.76 0.25,0.35 0.52,0.68 0.79,1.01 0.07,0.09 0.14,0.17 0.21,0.25 0.21,0.25 0.42,0.5 0.64,0.74 0.1,0.13 0.21,0.25 0.32,0.36 0.02,0.02 0.04,0.04 0.05,0.06 0.26,0.27 0.51,0.53 0.76,0.78 0.26,0.26 0.53,0.52 0.8,0.78 0.03,0.02 0.06,0.05 0.09,0.08 0.08,0.07 0.16,0.15 0.25,0.23 0.04,0.03 0.08,0.07 0.12,0.1 0.27,0.24 0.55,0.47 0.83,0.71 0.36,0.3 0.73,0.59 1.11,0.87 0.3,0.23 0.6,0.45 0.91,0.65 0.15,0.12 0.31,0.23 0.47,0.33 0.2,0.13 0.4,0.26 0.6,0.38 0.19,0.13 0.38,0.25 0.58,0.36 0.39,0.23 0.78,0.46 1.18,0.67 0.25,0.13 0.49,0.26 0.74,0.38 0.58,0.29 1.17,0.56 1.78,0.82 0.02,0.01 0.03,0.01 0.05,0.02 0.22,0.09 0.45,0.18 0.67,0.26 0.03,0.01 0.05,0.02 0.08,0.03 0.2,0.09 0.4,0.16 0.61,0.23 0.02,0.01 0.03,0.01 0.05,0.02 0.4,0.15 0.82,0.28 1.24,0.41 0.42,0.13 0.85,0.25 1.28,0.36 0.13,0.04 0.26,0.07 0.39,0.1 0.31,0.08 0.61,0.15 0.92,0.21 0.04,0 0.07,0.01 0.11,0.02 0.1,0.02 0.2,0.04 0.3,0.06 0.21,0.04 0.42,0.08 0.63,0.11 0.05,0.01 0.09,0.01 0.14,0.02 0.34,0.06 0.68,0.11 1.03,0.16 0.12,0.01 0.24,0.03 0.37,0.04 0.26,0.04 0.52,0.06 0.78,0.09 0.3,0.03 0.61,0.05 0.92,0.06 0.57,0.04 1.16,0.06 1.74,0.06 h 3 C 16.48,761.56 3.3,748.38 3.3,732.17 V 32.69 C 3.3,16.48 16.48,3.3 32.69,3.3 Z"
   id="path132" />
</svg>
